<svg  viewBox="0 0 20 20" fill="none" xmlns="http://www.w3.org/2000/svg">
<path d="M16.0982 11.2493H12.869C12.441 11.2489 12.0302 11.4182 11.7268 11.7202C11.4235 12.0222 11.2522 12.4321 11.2507 12.8602V16.0894C11.2505 16.3019 11.2922 16.5125 11.3734 16.7089C11.4547 16.9054 11.5739 17.0839 11.7242 17.2342C11.8745 17.3845 12.053 17.5037 12.2494 17.5849C12.4459 17.6662 12.6564 17.7079 12.869 17.7077H16.0982C16.5261 17.7059 16.9358 17.5346 17.2376 17.2312C17.5394 16.9279 17.7086 16.5173 17.7082 16.0894V12.8602C17.7084 12.6487 17.6669 12.4392 17.5861 12.2438C17.5052 12.0484 17.3866 11.8708 17.2371 11.7213C17.0876 11.5717 16.91 11.4531 16.7146 11.3723C16.5191 11.2915 16.3097 11.25 16.0982 11.2502M7.13067 11.2493H3.9015C3.47367 11.2518 3.06418 11.4234 2.7625 11.7268C2.46083 12.0302 2.2915 12.4407 2.2915 12.8685V16.0977C2.29129 16.3092 2.33278 16.5186 2.41361 16.7141C2.49444 16.9095 2.61303 17.0871 2.76257 17.2366C2.91212 17.3862 3.08969 17.5047 3.28513 17.5856C3.48056 17.6664 3.69002 17.7079 3.9015 17.7077H7.13067C7.55857 17.7081 7.9692 17.5389 8.27255 17.2371C8.57591 16.9353 8.74724 16.5256 8.749 16.0977V12.8685C8.74922 12.6559 8.70751 12.4454 8.62626 12.2489C8.54501 12.0525 8.42581 11.874 8.27549 11.7237C8.12517 11.5734 7.94668 11.4542 7.75024 11.3729C7.5538 11.2917 7.34326 11.25 7.13067 11.2502M7.13067 2.29102H3.9015C3.69002 2.2908 3.48056 2.33229 3.28513 2.41312C3.08969 2.49396 2.91212 2.61254 2.76257 2.76209C2.61303 2.91163 2.49444 3.0892 2.41361 3.28464C2.33278 3.48007 2.29129 3.68953 2.2915 3.90102V7.13018C2.29106 7.55809 2.46028 7.96871 2.76207 8.27207C3.06386 8.57542 3.47361 8.74675 3.9015 8.74852H7.13067C7.34326 8.74874 7.5538 8.70703 7.75024 8.62577C7.94668 8.54452 8.12517 8.42533 8.27549 8.27501C8.42581 8.12469 8.54501 7.9462 8.62626 7.74975C8.70751 7.55331 8.74922 7.34277 8.749 7.13018V3.90102C8.74724 3.47312 8.57591 3.06337 8.27255 2.76158C7.9692 2.45979 7.55857 2.29057 7.13067 2.29102ZM16.0982 2.29102H12.869C12.4411 2.29057 12.0305 2.45979 11.7271 2.76158C11.4238 3.06337 11.2524 3.47312 11.2507 3.90102V7.13018C11.2509 7.55932 11.4215 7.97083 11.7249 8.27427C12.0284 8.57772 12.4399 8.7483 12.869 8.74852H16.0982C16.5261 8.74675 16.9358 8.57542 17.2376 8.27207C17.5394 7.96871 17.7086 7.55809 17.7082 7.13018V3.90102C17.7084 3.68953 17.6669 3.48007 17.5861 3.28464C17.5052 3.0892 17.3866 2.91163 17.2371 2.76209C17.0876 2.61254 16.91 2.49396 16.7146 2.41312C16.5191 2.33229 16.3097 2.2908 16.0982 2.29102Z" stroke="#E2EDF2" stroke-width="1.25" stroke-linecap="round" stroke-linejoin="round"/>
</svg>
