<svg  viewBox="0 0 45 44" fill="none" xmlns="http://www.w3.org/2000/svg">
<g clip-path="url(#clip0_63_10077)">
<rect x="0.379883" width="44" height="44" rx="22" fill="url(#paint0_linear_63_10077)"/>
<path d="M29.8799 19C30.2777 19 30.6592 18.842 30.9405 18.5607C31.2218 18.2794 31.3799 17.8978 31.3799 17.5V14.5C31.3799 14.1022 31.2218 13.7206 30.9405 13.4393C30.6592 13.158 30.2777 13 29.8799 13H26.8799C26.4821 13 26.1005 13.158 25.8192 13.4393C25.5379 13.7206 25.3799 14.1022 25.3799 14.5V15.25H19.3799V14.5C19.3799 14.1022 19.2218 13.7206 18.9405 13.4393C18.6592 13.158 18.2777 13 17.8799 13H14.8799C14.4821 13 14.1005 13.158 13.8192 13.4393C13.5379 13.7206 13.3799 14.1022 13.3799 14.5V17.5C13.3799 17.8978 13.5379 18.2794 13.8192 18.5607C14.1005 18.842 14.4821 19 14.8799 19H15.6299V25H14.8799C14.4821 25 14.1005 25.158 13.8192 25.4393C13.5379 25.7206 13.3799 26.1022 13.3799 26.5V29.5C13.3799 29.8978 13.5379 30.2794 13.8192 30.5607C14.1005 30.842 14.4821 31 14.8799 31H17.8799C18.2777 31 18.6592 30.842 18.9405 30.5607C19.2218 30.2794 19.3799 29.8978 19.3799 29.5V28.75H25.3799V29.5C25.3799 29.8978 25.5379 30.2794 25.8192 30.5607C26.1005 30.842 26.4821 31 26.8799 31H29.8799C30.2777 31 30.6592 30.842 30.9405 30.5607C31.2218 30.2794 31.3799 29.8978 31.3799 29.5V26.5C31.3799 26.1022 31.2218 25.7206 30.9405 25.4393C30.6592 25.158 30.2777 25 29.8799 25H29.1299V19H29.8799ZM26.8799 14.5H29.8799V17.5H26.8799V14.5ZM14.8799 14.5H17.8799V15.9906C17.8786 15.9968 17.8786 16.0032 17.8799 16.0094V17.5H14.8799V14.5ZM17.8799 29.5H14.8799V26.5H17.8799V27.9906C17.8786 27.9968 17.8786 28.0032 17.8799 28.0094V29.5ZM29.8799 29.5H26.8799V26.5H29.8799V29.5ZM27.6299 25H26.8799C26.4821 25 26.1005 25.158 25.8192 25.4393C25.5379 25.7206 25.3799 26.1022 25.3799 26.5V27.25H19.3799V26.5C19.3799 26.1022 19.2218 25.7206 18.9405 25.4393C18.6592 25.158 18.2777 25 17.8799 25H17.1299V19H17.8799C18.2777 19 18.6592 18.842 18.9405 18.5607C19.2218 18.2794 19.3799 17.8978 19.3799 17.5V16.75H25.3799V17.5C25.3799 17.8978 25.5379 18.2794 25.8192 18.5607C26.1005 18.842 26.4821 19 26.8799 19H27.6299V25Z" fill="#D1D1D1"/>
<mask id="path-3-inside-1_63_10077" fill="white">
<path d="M0.379883 22C0.379883 9.84974 10.2296 0 22.3799 0C34.5301 0 44.3799 9.84974 44.3799 22C44.3799 34.1503 34.5301 44 22.3799 44C10.2296 44 0.379883 34.1503 0.379883 22Z"/>
</mask>
<path d="M0.379883 21C0.379883 8.84974 10.2296 -1 22.3799 -1C34.5301 -1 44.3799 8.84974 44.3799 21V22C44.3799 10.402 34.5301 1 22.3799 1C10.2296 1 0.379883 10.402 0.379883 22V21ZM44.3799 44H0.379883H44.3799ZM0.379883 44V0V44ZM44.3799 0V44V0Z" fill="white" fill-opacity="0.12" mask="url(#path-3-inside-1_63_10077)"/>
</g>
<defs>
<linearGradient id="paint0_linear_63_10077" x1="22.3799" y1="0" x2="22.3799" y2="44" gradientUnits="userSpaceOnUse">
<stop stop-color="white" stop-opacity="0"/>
<stop offset="1" stop-color="white" stop-opacity="0.12"/>
</linearGradient>
<clipPath id="clip0_63_10077">
<rect x="0.379883" width="44" height="44" rx="22" fill="white"/>
</clipPath>
</defs>
</svg>
