<svg  viewBox="0 0 20 20" fill="none" xmlns="http://www.w3.org/2000/svg">
<path d="M18.2873 12.0607L18.3048 12.1123L18.324 12.1957L18.3323 12.279V17.709C18.3323 17.8603 18.2773 18.0064 18.1777 18.1203C18.0781 18.2341 17.9406 18.308 17.7907 18.3282L17.7073 18.334H2.2915C2.14047 18.334 1.99455 18.2793 1.88073 18.18C1.7669 18.0807 1.69288 17.9436 1.67234 17.794L1.6665 17.709V12.2923L1.66817 12.249L1.6765 12.1773C1.68613 12.1338 1.69923 12.0912 1.71567 12.0498L4.01567 7.03399C4.05905 6.93917 4.12547 6.85671 4.20887 6.79413C4.29227 6.73154 4.39001 6.69081 4.49317 6.67566L4.58317 6.66983L6.69984 6.66899L6.0415 7.81066L5.98567 7.91899H4.98317L3.26484 11.6673H16.7248L15.0357 8.04566L15.754 6.79816C15.8101 6.84038 15.8579 6.89149 15.8973 6.95149L15.9415 7.03066L18.2873 12.0607ZM11.1373 1.71399L11.214 1.75149L15.5373 4.25399C15.8107 4.41233 15.919 4.74649 15.8032 5.03149L15.7657 5.10816L13.4265 9.16733H14.3748C14.5343 9.1657 14.6884 9.22511 14.8055 9.33339C14.9226 9.44166 14.9939 9.5906 15.0047 9.74972C15.0156 9.90884 14.9652 10.0661 14.8639 10.1893C14.7626 10.3125 14.6181 10.3923 14.4598 10.4123L14.3748 10.4182L12.7065 10.4173V10.4198H9.30734L9.30484 10.4173H5.62484C5.46747 10.4159 5.31646 10.3551 5.20195 10.2471C5.08745 10.1392 5.01788 9.99198 5.00715 9.83498C4.99642 9.67798 5.04531 9.5227 5.14405 9.40017C5.2428 9.27764 5.38414 9.19687 5.53984 9.17399L5.62484 9.16816L7.144 9.16733L6.99234 9.07983C6.8617 9.00411 6.76289 8.88365 6.71417 8.74072C6.66546 8.5978 6.67014 8.44207 6.72734 8.30233L6.764 8.22566L10.3615 1.97899C10.5198 1.70483 10.8532 1.59566 11.1373 1.71233M11.129 3.14566L8.15734 8.30899L9.639 9.16733H11.9865L14.374 5.02316L11.129 3.14566Z" fill="#5797B4"/>
</svg>
