<svg  viewBox="0 0 158 158" fill="none" xmlns="http://www.w3.org/2000/svg">
<g filter="url(#filter0_d_22_8012)">
<circle cx="77" cy="77" r="49" fill="#01916E"/>
</g>
<path d="M62.6 63.6667H68L71.6 60H82.4L86 63.6667H91.4C92.3548 63.6667 93.2705 64.053 93.9456 64.7406C94.6207 65.4282 95 66.3609 95 67.3333V89.3333C95 90.3058 94.6207 91.2384 93.9456 91.9261C93.2705 92.6137 92.3548 93 91.4 93H62.6C61.6452 93 60.7295 92.6137 60.0544 91.9261C59.3793 91.2384 59 90.3058 59 89.3333V67.3333C59 66.3609 59.3793 65.4282 60.0544 64.7406C60.7295 64.053 61.6452 63.6667 62.6 63.6667ZM77 69.1667C74.6131 69.1667 72.3239 70.1324 70.636 71.8515C68.9482 73.5706 68 75.9022 68 78.3333C68 80.7645 68.9482 83.0961 70.636 84.8151C72.3239 86.5342 74.6131 87.5 77 87.5C79.3869 87.5 81.6761 86.5342 83.364 84.8151C85.0518 83.0961 86 80.7645 86 78.3333C86 75.9022 85.0518 73.5706 83.364 71.8515C81.6761 70.1324 79.3869 69.1667 77 69.1667ZM77 72.8333C78.4322 72.8333 79.8057 73.4128 80.8184 74.4442C81.8311 75.4757 82.4 76.8746 82.4 78.3333C82.4 79.792 81.8311 81.191 80.8184 82.2224C79.8057 83.2539 78.4322 83.8333 77 83.8333C75.5678 83.8333 74.1943 83.2539 73.1816 82.2224C72.1689 81.191 71.6 79.792 71.6 78.3333C71.6 76.8746 72.1689 75.4757 73.1816 74.4442C74.1943 73.4128 75.5678 72.8333 77 72.8333Z" fill="#FAFAFA"/>
<defs>
<filter id="filter0_d_22_8012" x="0" y="0" width="158" height="158" filterUnits="userSpaceOnUse" color-interpolation-filters="sRGB">
<feFlood flood-opacity="0" result="BackgroundImageFix"/>
<feColorMatrix in="SourceAlpha" type="matrix" values="0 0 0 0 0 0 0 0 0 0 0 0 0 0 0 0 0 0 127 0" result="hardAlpha"/>
<feOffset dx="2" dy="2"/>
<feGaussianBlur stdDeviation="15"/>
<feComposite in2="hardAlpha" operator="out"/>
<feColorMatrix type="matrix" values="0 0 0 0 0.827451 0 0 0 0 0.886275 0 0 0 0 0.933333 0 0 0 1 0"/>
<feBlend mode="normal" in2="BackgroundImageFix" result="effect1_dropShadow_22_8012"/>
<feBlend mode="normal" in="SourceGraphic" in2="effect1_dropShadow_22_8012" result="shape"/>
</filter>
</defs>
</svg>
