<svg  viewBox="0 0 25 24" fill="none" xmlns="http://www.w3.org/2000/svg">
<path d="M20.5 11.0007C20.2554 9.2409 19.4391 7.61034 18.1766 6.36018C16.9142 5.11001 15.2758 4.3096 13.5137 4.08224C11.7516 3.85487 9.96362 4.21316 8.4252 5.10193C6.88678 5.99069 5.68325 7.36062 5 9.00068M4.5 5.00068V9.00068H8.5M4.5 13.0007C4.74456 14.7605 5.56093 16.391 6.82336 17.6412C8.08579 18.8914 9.72424 19.6918 11.4863 19.9191C13.2484 20.1465 15.0364 19.7882 16.5748 18.8994C18.1132 18.0107 19.3168 16.6407 20 15.0007M20.5 19.0007V15.0007H16.5" stroke="white" stroke-width="1.66667" stroke-linecap="round" stroke-linejoin="round"/>
</svg>
