<svg  viewBox="0 0 49 48" fill="none" xmlns="http://www.w3.org/2000/svg">
<g clip-path="url(#clip0_63_10053)">
<rect x="0.629883" width="48" height="48" rx="24" fill="url(#paint0_linear_63_10053)"/>
<path d="M26.3125 15.375C26.3125 14.8777 26.1215 14.4008 25.7816 14.0492C25.4417 13.6975 24.9807 13.5 24.5 13.5C24.0193 13.5 23.5583 13.6975 23.2184 14.0492C22.8785 14.4008 22.6875 14.8777 22.6875 15.375C22.6875 15.8723 22.8785 16.3492 23.2184 16.7008C23.5583 17.0525 24.0193 17.25 24.5 17.25C24.9807 17.25 25.4417 17.0525 25.7816 16.7008C26.1215 16.3492 26.3125 15.8723 26.3125 15.375ZM16.525 21.75C17.0057 21.75 17.4667 21.5525 17.8066 21.2008C18.1465 20.8492 18.3375 20.3723 18.3375 19.875C18.3375 19.3777 18.1465 18.9008 17.8066 18.5492C17.4667 18.1975 17.0057 18 16.525 18C16.0443 18 15.5833 18.1975 15.2434 18.5492C14.9035 18.9008 14.7125 19.3777 14.7125 19.875C14.7125 20.3723 14.9035 20.8492 15.2434 21.2008C15.5833 21.5525 16.0443 21.75 16.525 21.75ZM11.45 31.5C10.648 31.5 10 32.1703 10 33C10 33.8297 10.648 34.5 11.45 34.5H37.55C38.352 34.5 39 33.8297 39 33C39 32.1703 38.352 31.5 37.55 31.5H11.45ZM32.475 21.75C32.9557 21.75 33.4167 21.5525 33.7566 21.2008C34.0965 20.8492 34.2875 20.3723 34.2875 19.875C34.2875 19.3777 34.0965 18.9008 33.7566 18.5492C33.4167 18.1975 32.9557 18 32.475 18C31.9943 18 31.5333 18.1975 31.1934 18.5492C30.8535 18.9008 30.6625 19.3777 30.6625 19.875C30.6625 20.3723 30.8535 20.8492 31.1934 21.2008C31.5333 21.5525 31.9943 21.75 32.475 21.75ZM19.0625 26.6953L20.2814 29.0344C20.5669 29.5828 21.2239 29.7844 21.7541 29.4938C22.2842 29.2031 22.4791 28.5188 22.1981 27.9703L20.5533 24.8063C20.6303 24.7266 20.6983 24.6375 20.7481 24.5344L21.9625 22.1953V24.75C21.9625 25.5797 22.6105 26.25 23.4125 26.25H25.5875C26.3895 26.25 27.0375 25.5797 27.0375 24.75V22.1953L28.2564 24.5344C28.3108 24.6375 28.3742 24.7266 28.4513 24.8063L26.8064 27.9703C26.5209 28.5188 26.7203 29.1984 27.2505 29.4938C27.7806 29.7891 28.4377 29.5828 28.7231 29.0344L29.9375 26.6953V28.5C29.9375 29.3297 30.5855 30 31.3875 30H33.5625C34.3645 30 35.0125 29.3297 35.0125 28.5V26.6953L36.2314 29.0344C36.5169 29.5828 37.1739 29.7844 37.7041 29.4938C38.2342 29.2031 38.4291 28.5188 38.1481 27.9703L36.4308 24.675C35.7375 23.3391 34.3872 22.5047 32.9191 22.5047H32.0355C31.2969 22.5047 30.59 22.7156 29.9783 23.0953L28.4558 20.175C27.7625 18.8391 26.4122 18.0047 24.9441 18.0047H24.0605C22.5923 18.0047 21.2466 18.8391 20.5488 20.175L19.0262 23.0953C18.4145 22.7156 17.7077 22.5047 16.9691 22.5047H16.0855C14.6173 22.5047 13.2716 23.3391 12.5738 24.675L10.8564 27.9656C10.5709 28.5141 10.7703 29.1938 11.3005 29.4891C11.8306 29.7844 12.4877 29.5781 12.7731 29.0297L13.9875 26.6953V28.5C13.9875 29.3297 14.6355 30 15.4375 30H17.6125C18.4145 30 19.0625 29.3297 19.0625 28.5V26.6953Z" fill="#D1D1D1"/>
<mask id="path-3-inside-1_63_10053" fill="white">
<path d="M0.629883 24C0.629883 10.7452 11.375 0 24.6299 0C37.8847 0 48.6299 10.7452 48.6299 24C48.6299 37.2548 37.8847 48 24.6299 48C11.375 48 0.629883 37.2548 0.629883 24Z"/>
</mask>
<path d="M0.629883 23C0.629883 9.74517 11.375 -1 24.6299 -1C37.8847 -1 48.6299 9.74517 48.6299 23V24C48.6299 11.2975 37.8847 1 24.6299 1C11.375 1 0.629883 11.2975 0.629883 24V23ZM48.6299 48H0.629883H48.6299ZM0.629883 48V0V48ZM48.6299 0V48V0Z" fill="white" fill-opacity="0.12" mask="url(#path-3-inside-1_63_10053)"/>
</g>
<defs>
<linearGradient id="paint0_linear_63_10053" x1="24.6299" y1="0" x2="24.6299" y2="48" gradientUnits="userSpaceOnUse">
<stop stop-color="white" stop-opacity="0"/>
<stop offset="1" stop-color="white" stop-opacity="0.12"/>
</linearGradient>
<clipPath id="clip0_63_10053">
<rect x="0.629883" width="48" height="48" rx="24" fill="white"/>
</clipPath>
</defs>
</svg>
