<svg  viewBox="0 0 19 18" fill="none" xmlns="http://www.w3.org/2000/svg">
<path d="M15.0351 9C15.0351 8.8275 15.0276 8.6625 15.0126 8.49L16.4076 7.4325C16.7076 7.2075 16.7901 6.7875 16.6026 6.4575L15.2001 4.035C15.1102 3.87614 14.9648 3.75611 14.7917 3.69796C14.6187 3.63982 14.4303 3.64767 14.2626 3.72L12.6501 4.4025C12.3726 4.2075 12.0801 4.035 11.7726 3.8925L11.5551 2.16C11.5101 1.785 11.1876 1.5 10.8126 1.5H8.01515C7.63265 1.5 7.31015 1.785 7.26515 2.16L7.04765 3.8925C6.74015 4.035 6.44765 4.2075 6.17015 4.4025L4.55765 3.72C4.21265 3.57 3.80765 3.705 3.62015 4.035L2.21765 6.465C2.03015 6.795 2.11265 7.2075 2.41265 7.44L3.80765 8.4975C3.77638 8.83428 3.77638 9.17323 3.80765 9.51L2.41265 10.5675C2.11265 10.7925 2.03015 11.2125 2.21765 11.5425L3.62015 13.965C3.80765 14.295 4.21265 14.43 4.55765 14.28L6.17015 13.5975C6.44765 13.7925 6.74015 13.965 7.04765 14.1075L7.26515 15.84C7.31015 16.215 7.63265 16.5 8.00765 16.5H10.8051C11.1801 16.5 11.5026 16.215 11.5476 15.84L11.7652 14.1075C12.0726 13.965 12.3651 13.7925 12.6426 13.5975L14.2551 14.28C14.6001 14.43 15.0051 14.295 15.1926 13.965L16.5951 11.5425C16.7826 11.2125 16.7001 10.8 16.4001 10.5675L15.0051 9.51C15.0276 9.3375 15.0351 9.1725 15.0351 9ZM9.44015 11.625C7.99265 11.625 6.81515 10.4475 6.81515 9C6.81515 7.5525 7.99265 6.375 9.44015 6.375C10.8876 6.375 12.0651 7.5525 12.0651 9C12.0651 10.4475 10.8876 11.625 9.44015 11.625Z" fill="#F1F6F9"/>
</svg>
