<svg  viewBox="0 0 18 18" fill="none" xmlns="http://www.w3.org/2000/svg">
<path d="M8.75 0C8.94891 0 9.13968 0.0790175 9.28033 0.21967C9.42098 0.360322 9.5 0.551088 9.5 0.75C9.5 0.948912 9.42098 1.13968 9.28033 1.28033C9.13968 1.42098 8.94891 1.5 8.75 1.5C6.82718 1.5 4.98311 2.26384 3.62348 3.62348C2.26384 4.98311 1.5 6.82718 1.5 8.75C1.5 10.6728 2.26384 12.5169 3.62348 13.8765C4.98311 15.2362 6.82718 16 8.75 16C8.94891 16 9.13968 16.079 9.28033 16.2197C9.42098 16.3603 9.5 16.5511 9.5 16.75C9.5 16.9489 9.42098 17.1397 9.28033 17.2803C9.13968 17.421 8.94891 17.5 8.75 17.5C6.42936 17.5 4.20376 16.5781 2.56282 14.9372C0.921872 13.2962 0 11.0706 0 8.75C0 6.42936 0.921872 4.20376 2.56282 2.56282C4.20376 0.921872 6.42936 0 8.75 0Z" fill="#FAFAFA"/>
<path d="M13.22 6.28082C13.0875 6.13865 13.0154 5.9506 13.0188 5.7563C13.0223 5.562 13.101 5.37662 13.2384 5.2392C13.3758 5.10179 13.5612 5.02308 13.7555 5.01965C13.9498 5.01622 14.1378 5.08834 14.28 5.22082L17.28 8.22082C17.4205 8.36145 17.4993 8.55207 17.4993 8.75082C17.4993 8.94957 17.4205 9.1402 17.28 9.28082L14.28 12.2808C14.2113 12.3545 14.1285 12.4136 14.0365 12.4546C13.9445 12.4956 13.8452 12.5176 13.7445 12.5194C13.6438 12.5212 13.5438 12.5027 13.4504 12.4649C13.357 12.4272 13.2722 12.3711 13.201 12.2999C13.1297 12.2286 13.0736 12.1438 13.0359 12.0504C12.9982 11.957 12.9796 11.857 12.9814 11.7563C12.9832 11.6556 13.0052 11.5563 13.0462 11.4643C13.0872 11.3723 13.1463 11.2895 13.22 11.2208L14.94 9.50082H6.75C6.55109 9.50082 6.36032 9.42181 6.21967 9.28115C6.07902 9.1405 6 8.94974 6 8.75082C6 8.55191 6.07902 8.36115 6.21967 8.22049C6.36032 8.07984 6.55109 8.00082 6.75 8.00082H14.94L13.22 6.28082Z" fill="#FAFAFA"/>
</svg>
