<svg  viewBox="0 0 20 20" fill="none" xmlns="http://www.w3.org/2000/svg">
<path d="M9.58333 1.66602C5.675 1.66602 2.5 4.84102 2.5 8.74935C2.5 12.6577 5.675 15.8327 9.58333 15.8327H10V18.3327C14.05 16.3827 16.6667 12.4993 16.6667 8.74935C16.6667 4.84102 13.4917 1.66602 9.58333 1.66602ZM10.4167 13.7493H8.75V12.0827H10.4167V13.7493ZM10.4167 10.8327H8.75C8.75 8.12435 11.25 8.33268 11.25 6.66602C11.25 5.74935 10.5 4.99935 9.58333 4.99935C8.66667 4.99935 7.91667 5.74935 7.91667 6.66602H6.25C6.25 4.82435 7.74167 3.33268 9.58333 3.33268C11.425 3.33268 12.9167 4.82435 12.9167 6.66602C12.9167 8.74935 10.4167 8.95768 10.4167 10.8327Z" fill="#5797B4"/>
</svg>
