<svg  viewBox="0 0 45 44" fill="none" xmlns="http://www.w3.org/2000/svg">
<g clip-path="url(#clip0_63_10089)">
<rect x="0.129883" width="44" height="44" rx="22" fill="url(#paint0_linear_63_10089)"/>
<g clip-path="url(#clip1_63_10089)">
<path fill-rule="evenodd" clip-rule="evenodd" d="M31.41 15.7157C31.584 15.7852 31.7332 15.9052 31.8384 16.0602C31.9436 16.2153 31.9999 16.3983 32 16.5857V27.4132C31.9999 27.6006 31.9436 27.7836 31.8384 27.9387C31.7332 28.0938 31.584 28.2138 31.41 28.2832L22.3475 31.9082C22.124 31.9976 21.8747 31.9976 21.6512 31.9082L12.5888 28.2832C12.415 28.2136 12.266 28.0935 12.1611 27.9384C12.0561 27.7834 12 27.6004 12 27.4132V16.5857C12 16.3985 12.0561 16.2156 12.1611 16.0605C12.266 15.9055 12.415 15.7854 12.5888 15.7157L21.3038 12.2295L21.3088 12.2282L21.6512 12.0907C21.8751 12.001 22.1249 12.001 22.3488 12.0907L22.6913 12.2282L22.6962 12.2295L31.41 15.7157ZM29.6925 16.3745L22 19.452L14.3075 16.3745L13.25 16.7982V17.2982L21.375 20.5482V30.4507L22 30.7007L22.625 30.4507V20.5495L30.75 17.2995V16.7995L29.6925 16.3745Z" fill="#D1D1D1"/>
</g>
<mask id="path-3-inside-1_63_10089" fill="white">
<path d="M0.129883 22C0.129883 9.84974 9.97962 0 22.1299 0C34.2801 0 44.1299 9.84974 44.1299 22C44.1299 34.1503 34.2801 44 22.1299 44C9.97962 44 0.129883 34.1503 0.129883 22Z"/>
</mask>
<path d="M0.129883 21C0.129883 8.84974 9.97962 -1 22.1299 -1C34.2801 -1 44.1299 8.84974 44.1299 21V22C44.1299 10.402 34.2801 1 22.1299 1C9.97962 1 0.129883 10.402 0.129883 22V21ZM44.1299 44H0.129883H44.1299ZM0.129883 44V0V44ZM44.1299 0V44V0Z" fill="white" fill-opacity="0.12" mask="url(#path-3-inside-1_63_10089)"/>
</g>
<defs>
<linearGradient id="paint0_linear_63_10089" x1="22.1299" y1="0" x2="22.1299" y2="44" gradientUnits="userSpaceOnUse">
<stop stop-color="white" stop-opacity="0"/>
<stop offset="1" stop-color="white" stop-opacity="0.12"/>
</linearGradient>
<clipPath id="clip0_63_10089">
<rect x="0.129883" width="44" height="44" rx="22" fill="white"/>
</clipPath>
<clipPath id="clip1_63_10089">
<rect width="20" height="20" fill="white" transform="translate(12 12)"/>
</clipPath>
</defs>
</svg>
