<svg  viewBox="0 0 49 48" fill="none" xmlns="http://www.w3.org/2000/svg">
<g clip-path="url(#clip0_63_10065)">
<rect x="0.879883" width="48" height="48" rx="24" fill="url(#paint0_linear_63_10065)"/>
<path d="M36.1562 13.0137C35.4556 13.4088 34.7703 13.8378 34.1092 14.3837L34.4523 16.1906C35.1214 16.3905 35.668 16.4655 36.1562 16.4702V13.0137ZM31.5165 14.1627C30.8001 14.1587 29.994 14.2844 28.9931 14.483L28.9828 14.485L28.9725 14.4866C28.2801 14.5886 27.0603 15.0521 25.8569 16.3085L27.9321 16.86C27.9776 16.79 28.2103 16.4379 28.2546 16.3652C28.4948 16.5116 28.735 16.6579 28.9751 16.8042C28.3904 17.764 27.7216 18.4709 26.9157 19.3599C26.8162 19.5811 26.9615 19.7443 27.1201 19.8352C27.3648 19.9726 27.781 19.9801 27.8906 19.9338C29.0124 19.1947 29.804 18.2497 30.5139 17.2961L30.7702 17.3413C31.3093 17.4365 32.011 17.3909 32.5846 17.2075C33.1048 17.0412 33.488 16.7689 33.6469 16.4722L33.2753 14.515C32.7108 14.2706 32.1485 14.1662 31.5164 14.1627H31.5165ZM23.6843 16.6275L22.3045 22.0644L22.7565 22.0783H27.5908L27.633 22.0685L27.9519 20.7986C27.5366 20.8876 27.0943 20.7884 26.707 20.571C26.4639 20.4345 26.2372 20.2316 26.1154 19.9413C25.75 19.0067 26.8587 18.193 27.4619 17.4686L23.6842 16.6275H23.6843ZM16.2607 21.4221L15.1826 23.5783H34.8174L33.7392 21.4221H28.6654L28.5005 22.0783H29.5V22.9221H20.5V22.0783H21.4306L21.5971 21.4221H16.2608H16.2607ZM14.9219 24.4221V34.8283H35.0781V24.4221H14.9219ZM15.5781 25.0783H34.4219V34.1721H15.5781V25.0783ZM16.4219 25.9221V31.4645L18.0392 27.9491L21.4779 29.438L24.6022 27.2892L26.3606 29.9739L28.7095 29.7585L30.1767 27.9148L33.5781 30.4983V25.9221H16.4219ZM24.3692 28.4735L20.1209 31.3952L21.387 33.3283H25.8685L26.7904 32.17L24.3692 28.4735ZM18.4608 29.0513L16.4932 33.3283H20.3784L18.9631 31.1675L20.6574 30.0023L18.4608 29.0512V29.0513ZM30.3233 29.0856L26.9469 33.3283H33.5347L33.5781 33.2737V31.5579L30.3233 29.0856ZM27.9821 30.6725L26.884 30.7732L27.3437 31.4748L27.9821 30.6725Z" fill="#D1D1D1"/>
<mask id="path-3-inside-1_63_10065" fill="white">
<path d="M0.879883 24C0.879883 10.7452 11.625 0 24.8799 0C38.1347 0 48.8799 10.7452 48.8799 24C48.8799 37.2548 38.1347 48 24.8799 48C11.625 48 0.879883 37.2548 0.879883 24Z"/>
</mask>
<path d="M0.879883 23C0.879883 9.74517 11.625 -1 24.8799 -1C38.1347 -1 48.8799 9.74517 48.8799 23V24C48.8799 11.2975 38.1347 1 24.8799 1C11.625 1 0.879883 11.2975 0.879883 24V23ZM48.8799 48H0.879883H48.8799ZM0.879883 48V0V48ZM48.8799 0V48V0Z" fill="white" fill-opacity="0.12" mask="url(#path-3-inside-1_63_10065)"/>
</g>
<defs>
<linearGradient id="paint0_linear_63_10065" x1="24.8799" y1="0" x2="24.8799" y2="48" gradientUnits="userSpaceOnUse">
<stop stop-color="white" stop-opacity="0"/>
<stop offset="1" stop-color="white" stop-opacity="0.12"/>
</linearGradient>
<clipPath id="clip0_63_10065">
<rect x="0.879883" width="48" height="48" rx="24" fill="white"/>
</clipPath>
</defs>
</svg>
