<svg  viewBox="0 0 32 32" fill="none" xmlns="http://www.w3.org/2000/svg">
<path d="M9.71422 10.8566C10.8509 10.8566 11.9409 10.4051 12.7447 9.60133C13.5484 8.7976 13.9999 7.70751 13.9999 6.57087C13.9999 5.43423 13.5484 4.34414 12.7447 3.54041C11.9409 2.73669 10.8509 2.28516 9.71422 2.28516C8.57757 2.28516 7.48749 2.73669 6.68376 3.54041C5.88003 4.34414 5.4285 5.43423 5.4285 6.57087C5.4285 7.70751 5.88003 8.7976 6.68376 9.60133C7.48749 10.4051 8.57757 10.8566 9.71422 10.8566ZM2.28564 14.836C2.28564 13.5846 3.29936 12.5709 4.55079 12.5709H10.9508C10.4499 13.8345 10.4414 15.2401 10.9268 16.5098C11.4122 17.7795 12.3563 18.8208 13.5725 19.428H10.8376C10.1622 19.4276 9.5018 19.6281 8.94054 20.004C8.37928 20.3798 7.94247 20.9141 7.68564 21.5389C5.39422 21.1149 4.0205 19.9709 3.23536 18.6932C2.28564 17.1537 2.28564 15.5629 2.28564 15.2886V14.836ZM18.4262 19.428H21.1634C22.5862 19.428 23.8056 20.3 24.3154 21.5389C26.6068 21.1149 27.9805 19.9709 28.7656 18.6932C29.7142 17.1526 29.7142 15.5617 29.7142 15.2874V14.836C29.7145 14.5385 29.6561 14.2438 29.5424 13.9688C29.4287 13.6939 29.2618 13.444 29.0514 13.2336C28.841 13.0232 28.5912 12.8564 28.3163 12.7427C28.0413 12.629 27.7466 12.5706 27.4491 12.5709H21.0491C21.5499 13.8345 21.5585 15.2401 21.0731 16.5098C20.5876 17.7795 19.6435 18.8208 18.4274 19.428M26.5714 6.57087C26.5714 7.70751 26.1198 8.7976 25.3161 9.60133C24.5124 10.4051 23.4223 10.8566 22.2856 10.8566C21.149 10.8566 20.0589 10.4051 19.2552 9.60133C18.4515 8.7976 17.9999 7.70751 17.9999 6.57087C17.9999 5.43423 18.4515 4.34414 19.2552 3.54041C20.0589 2.73669 21.149 2.28516 22.2856 2.28516C23.4223 2.28516 24.5124 2.73669 25.3161 3.54041C26.1198 4.34414 26.5714 5.43423 26.5714 6.57087ZM8.57136 22.836C8.57136 21.5846 9.58507 20.5709 10.8365 20.5709H21.1634C22.4148 20.5709 23.4285 21.5846 23.4285 22.836V23.2874C23.4285 23.5617 23.4285 25.1526 22.4799 26.6932C21.4856 28.3114 19.5496 29.7137 15.9999 29.7137C12.4502 29.7137 10.5142 28.3103 9.51993 26.6943C8.57136 25.1526 8.57136 23.5629 8.57136 23.2874V22.836ZM15.9999 18.8566C17.1366 18.8566 18.2267 18.4051 19.0304 17.6013C19.8341 16.7976 20.2856 15.7075 20.2856 14.5709C20.2856 13.4342 19.8341 12.3441 19.0304 11.5404C18.2267 10.7367 17.1366 10.2852 15.9999 10.2852C14.8633 10.2852 13.7732 10.7367 12.9695 11.5404C12.1657 12.3441 11.7142 13.4342 11.7142 14.5709C11.7142 15.7075 12.1657 16.7976 12.9695 17.6013C13.7732 18.4051 14.8633 18.8566 15.9999 18.8566Z" fill="#01CD9C"/>
</svg>
