<svg  viewBox="0 0 20 20" fill="none" xmlns="http://www.w3.org/2000/svg">
<path d="M18.2873 12.0599L18.3048 12.1116L18.324 12.1949L18.3323 12.2783V17.7083C18.3323 17.8595 18.2773 18.0057 18.1777 18.1195C18.0781 18.2334 17.9406 18.3073 17.7907 18.3274L17.7073 18.3333H2.2915C2.14047 18.3333 1.99455 18.2786 1.88073 18.1793C1.7669 18.08 1.69288 17.9429 1.67234 17.7933L1.6665 17.7083V12.2916L1.66817 12.2483L1.6765 12.1766C1.68613 12.1331 1.69923 12.0905 1.71567 12.0491L4.01567 7.03326C4.05905 6.93844 4.12547 6.85598 4.20887 6.79339C4.29227 6.73081 4.39001 6.69008 4.49317 6.67493L4.58317 6.66909L6.69984 6.66826L6.0415 7.80993L5.98567 7.91826H4.98317L3.26484 11.6666H16.7248L15.0357 8.04493L15.754 6.79743C15.8101 6.83965 15.8579 6.89076 15.8973 6.95076L15.9415 7.02993L18.2873 12.0599ZM11.1373 1.71326L11.214 1.75076L15.5373 4.25326C15.8107 4.41159 15.919 4.74576 15.8032 5.03076L15.7657 5.10743L13.4265 9.16659H14.3748C14.5343 9.16497 14.6884 9.22438 14.8055 9.33265C14.9226 9.44093 14.9939 9.58987 15.0047 9.74899C15.0156 9.90811 14.9652 10.0654 14.8639 10.1885C14.7626 10.3117 14.6181 10.3915 14.4598 10.4116L14.3748 10.4174L12.7065 10.4166V10.4191H9.30734L9.30484 10.4166H5.62484C5.46747 10.4151 5.31646 10.3543 5.20195 10.2464C5.08745 10.1384 5.01788 9.99125 5.00715 9.83425C4.99642 9.67725 5.04531 9.52197 5.14405 9.39944C5.2428 9.27691 5.38414 9.19614 5.53984 9.17326L5.62484 9.16743L7.144 9.16659L6.99234 9.07909C6.8617 9.00337 6.76289 8.88292 6.71417 8.73999C6.66546 8.59707 6.67014 8.44134 6.72734 8.30159L6.764 8.22493L10.3615 1.97826C10.5198 1.70409 10.8532 1.59493 11.1373 1.71159M11.129 3.14493L8.15734 8.30826L9.639 9.16659H11.9865L14.374 5.02243L11.129 3.14493Z" fill="#F1F6F9"/>
</svg>
