<svg  viewBox="0 0 24 20" fill="none" xmlns="http://www.w3.org/2000/svg">
<path d="M3.85714 0C2.83417 0 1.85309 0.425935 1.12973 1.1841C0.406376 1.94227 0 2.97057 0 4.04278V5.39037H24V4.04278C24 2.97057 23.5936 1.94227 22.8703 1.1841C22.1469 0.425935 21.1658 0 20.1429 0H3.85714ZM0 15.7219V7.18717H24V15.7219C24 16.7941 23.5936 17.8224 22.8703 18.5806C22.1469 19.3388 21.1658 19.7647 20.1429 19.7647H3.85714C2.83417 19.7647 1.85309 19.3388 1.12973 18.5806C0.406376 17.8224 0 16.7941 0 15.7219ZM16.2857 12.5775C16.0584 12.5775 15.8404 12.6722 15.6796 12.8407C15.5189 13.0092 15.4286 13.2377 15.4286 13.4759C15.4286 13.7142 15.5189 13.9427 15.6796 14.1112C15.8404 14.2797 16.0584 14.3743 16.2857 14.3743H18.8571C19.0845 14.3743 19.3025 14.2797 19.4632 14.1112C19.624 13.9427 19.7143 13.7142 19.7143 13.4759C19.7143 13.2377 19.624 13.0092 19.4632 12.8407C19.3025 12.6722 19.0845 12.5775 18.8571 12.5775H16.2857Z" fill="#46829C"/>
</svg>
